# Blender 3.3.0
# www.blender.org
mtllib mechArm.mtl
o mechArm
v 2.000000 0.000000 -2.000000
v 2.000000 0.400000 -2.000000
v 2.000000 0.000000 2.000000
v 2.000000 0.400000 2.000000
v -2.000000 0.000000 -2.000000
v -2.000000 0.400000 -2.000000
v -2.000000 0.000000 2.000000
v -2.000000 0.400000 2.000000
vn 1.0000 -0.0000 -0.0000
vn -0.0000 -0.0000 1.0000
vn -1.0000 -0.0000 -0.0000
vn -0.0000 -0.0000 -1.0000
vn -0.0000 -1.0000 -0.0000
vn -0.0000 1.0000 -0.0000
vt 0.375000 0.000000
vt 0.375000 1.000000
vt 0.125000 0.750000
vt 0.625000 0.000000
vt 0.625000 1.000000
vt 0.875000 0.750000
vt 0.125000 0.500000
vt 0.375000 0.250000
vt 0.625000 0.250000
vt 0.875000 0.500000
vt 0.375000 0.750000
vt 0.625000 0.750000
vt 0.375000 0.500000
vt 0.625000 0.500000
s 1
f 2/4/1 3/8/1 1/1/1
f 4/9/2 7/13/2 3/8/2
f 8/14/3 5/11/3 7/13/3
f 6/12/4 1/2/4 5/11/4
f 7/13/5 1/3/5 3/7/5
f 4/10/6 6/12/6 8/14/6
f 2/4/1 4/9/1 3/8/1
f 4/9/2 8/14/2 7/13/2
f 8/14/3 6/12/3 5/11/3
f 6/12/4 2/5/4 1/2/4
f 7/13/5 5/11/5 1/3/5
f 4/10/6 2/6/6 6/12/6
o lower
v 0.500000 0.400000 -0.540997
v 0.500000 2.400000 -0.540997
v 0.500000 0.400000 0.459003
v 0.500000 2.400000 0.459003
v -0.500000 0.400000 -0.540997
v -0.500000 2.400000 -0.540997
v -0.500000 0.400000 0.459003
v -0.500000 2.400000 0.459003
v -0.000000 2.227706 -0.040997
v -0.289443 2.448818 -0.251287
v 0.110555 2.448818 -0.381256
v 0.357770 2.448820 -0.040997
v 0.110555 2.448818 0.299263
v -0.289443 2.448818 0.169293
v -0.110555 2.806594 -0.381256
v 0.289443 2.806594 -0.251287
v 0.289443 2.806594 0.169293
v -0.110555 2.806594 0.299263
v -0.357770 2.806592 -0.040997
v -0.000000 3.027706 -0.040997
v 0.064982 2.287445 -0.240995
v -0.170129 2.287445 -0.164601
v -0.105147 2.417411 -0.364601
v -0.340259 2.417412 -0.040997
v -0.170129 2.287445 0.082608
v 0.210292 2.287446 -0.040997
v 0.275276 2.417412 -0.240996
v 0.064982 2.287445 0.159001
v 0.275276 2.417412 0.159002
v -0.105147 2.417411 0.282608
v -0.380423 2.627706 -0.164602
v -0.380423 2.627706 0.082608
v -0.000000 2.627706 -0.440997
v -0.235114 2.627706 -0.364603
v 0.380423 2.627706 -0.164602
v 0.235114 2.627706 -0.364603
v 0.235114 2.627706 0.282610
v 0.380423 2.627706 0.082608
v -0.235114 2.627706 0.282610
v -0.000000 2.627706 0.359003
v -0.275276 2.838001 -0.240996
v 0.105147 2.838001 -0.364601
v 0.340259 2.838001 -0.040997
v 0.105147 2.838001 0.282608
v -0.275276 2.838001 0.159002
v -0.064982 2.967968 -0.240995
v -0.210292 2.967967 -0.040997
v 0.170129 2.967968 -0.164601
v 0.170129 2.967968 0.082608
v -0.064982 2.967968 0.159001
vn 1.0000 -0.0000 -0.0000
vn -0.0000 -0.0000 1.0000
vn -1.0000 -0.0000 -0.0000
vn -0.0000 -0.0000 -1.0000
vn -0.0000 -1.0000 -0.0000
vn -0.0000 1.0000 -0.0000
vn -0.4253 -0.8507 -0.3090
vn 0.1625 -0.8507 -0.5000
vn -0.7236 -0.4472 -0.5257
vn -0.8506 -0.5257 -0.0000
vn 0.5257 -0.8507 -0.0000
vn 0.1625 -0.8507 0.5000
vn -0.4253 -0.8507 0.3090
vn -0.9511 -0.0000 -0.3090
vn 0.2764 -0.4472 -0.8506
vn -0.2629 -0.5257 -0.8090
vn 0.8944 -0.4472 -0.0000
vn 0.6882 -0.5257 -0.5000
vn 0.9511 -0.0000 -0.3090
vn 0.2764 -0.4472 0.8506
vn 0.6882 -0.5257 0.5000
vn 0.5878 -0.0000 0.8090
vn -0.7236 -0.4472 0.5257
vn -0.2629 -0.5257 0.8090
vn -0.5878 -0.0000 0.8090
vn -0.5878 -0.0000 -0.8090
vn 0.5878 -0.0000 -0.8090
vn 0.9511 -0.0000 0.3090
vn -0.9511 -0.0000 0.3090
vn -0.2764 0.4472 -0.8506
vn -0.6882 0.5257 -0.5000
vn -0.1625 0.8507 -0.5000
vn 0.7236 0.4472 -0.5257
vn 0.2629 0.5257 -0.8090
vn 0.4253 0.8507 -0.3090
vn 0.7236 0.4472 0.5257
vn 0.8506 0.5257 -0.0000
vn 0.4253 0.8507 0.3090
vn -0.2764 0.4472 0.8506
vn 0.2629 0.5257 0.8090
vn -0.1625 0.8507 0.5000
vn -0.8944 0.4472 -0.0000
vn -0.6882 0.5257 0.5000
vn -0.5257 0.8507 -0.0000
vt 0.375000 0.000000
vt 0.375000 1.000000
vt 0.125000 0.750000
vt 0.625000 0.000000
vt 0.625000 1.000000
vt 0.875000 0.750000
vt 0.125000 0.500000
vt 0.375000 0.250000
vt 0.625000 0.250000
vt 0.875000 0.500000
vt 0.375000 0.750000
vt 0.625000 0.750000
vt 0.375000 0.500000
vt 0.625000 0.500000
vt 0.181819 0.000000
vt 0.909091 0.000000
vt 0.727273 0.000000
vt 0.545455 0.000000
vt 0.363637 0.000000
vt 0.272728 0.157461
vt 1.000000 0.157461
vt 0.090910 0.157461
vt 0.818182 0.157461
vt 0.636364 0.157461
vt 0.454546 0.157461
vt 0.181819 0.314921
vt 0.000000 0.314921
vt 0.909091 0.314921
vt 0.727273 0.314921
vt 0.545455 0.314921
vt 0.363637 0.314921
vt 0.454546 0.472382
vt 0.636364 0.472382
vt 0.818182 0.472382
vt 0.090910 0.472382
vt 0.272728 0.472382
vt 0.954545 0.078731
vt 0.136365 0.078731
vt 0.318182 0.078731
vt 0.227273 0.078731
vt 0.181819 0.157461
vt 0.363637 0.157461
vt 0.500000 0.078731
vt 0.409092 0.078731
vt 0.772727 0.078731
vt 0.863636 0.078731
vt 0.909091 0.157461
vt 0.590909 0.078731
vt 0.681818 0.078731
vt 0.727273 0.157461
vt 0.545455 0.157461
vt 0.318182 0.236191
vt 0.409092 0.236191
vt 0.136365 0.236191
vt 0.227273 0.236191
vt 0.863636 0.236191
vt 0.045455 0.236191
vt 0.954545 0.236191
vt 0.681818 0.236191
vt 0.772727 0.236191
vt 0.500000 0.236191
vt 0.590909 0.236191
vt 0.272728 0.314921
vt 0.090910 0.314921
vt 0.818182 0.314921
vt 0.636364 0.314921
vt 0.454546 0.314921
vt 0.136365 0.393651
vt 0.227273 0.393651
vt 0.409092 0.393651
vt 0.318182 0.393651
vt 0.863636 0.393651
vt 0.045455 0.393651
vt 0.681818 0.393651
vt 0.772727 0.393651
vt 0.500000 0.393651
vt 0.590909 0.393651
s 1
f 10/18/7 11/22/7 9/15/7
f 12/23/8 15/27/8 11/22/8
f 16/28/9 13/25/9 15/27/9
f 14/26/10 9/16/10 13/25/10
f 15/27/11 9/17/11 11/21/11
f 12/24/12 14/26/12 16/28/12
f 10/18/7 12/23/7 11/22/7
f 12/23/8 16/28/8 15/27/8
f 16/28/9 14/26/9 13/25/9
f 14/26/10 10/19/10 9/16/10
f 15/27/11 13/25/11 9/17/11
f 12/24/12 10/20/12 14/26/12
f 17/29/11 30/54/13 29/52/14
f 18/34/15 30/53/13 32/56/16
f 17/30/11 29/51/14 34/60/17
f 17/31/11 34/59/17 36/63/18
f 17/32/11 36/62/18 33/57/19
f 18/34/15 32/56/16 39/66/20
f 19/36/21 31/55/22 41/68/10
f 20/37/23 35/61/24 43/70/25
f 21/38/26 37/64/27 45/73/28
f 22/39/29 38/65/30 47/75/31
f 18/34/15 39/66/20 42/69/32
f 19/36/21 41/68/10 44/71/33
f 20/37/23 43/70/25 46/74/34
f 21/38/26 45/73/28 48/76/8
f 22/39/29 47/75/31 40/67/35
f 23/40/36 49/77/37 54/83/38
f 24/41/39 50/78/40 56/87/41
f 25/43/42 51/79/43 57/89/44
f 26/44/45 52/80/46 58/91/47
f 27/45/48 53/81/49 55/84/50
f 55/84/50 58/90/47 28/46/12
f 55/84/50 53/81/49 58/90/47
f 53/81/49 26/44/45 58/90/47
f 58/91/47 57/88/44 28/47/12
f 58/91/47 52/80/46 57/88/44
f 52/80/46 25/43/42 57/88/44
f 57/89/44 56/86/41 28/48/12
f 57/89/44 51/79/43 56/86/41
f 51/79/43 24/42/39 56/86/41
f 56/87/41 54/82/38 28/49/12
f 56/87/41 50/78/40 54/82/38
f 50/78/40 23/40/36 54/82/38
f 54/83/38 55/85/50 28/50/12
f 54/83/38 49/77/37 55/85/50
f 49/77/37 27/45/48 55/85/50
f 40/67/35 53/81/49 27/45/48
f 40/67/35 47/75/31 53/81/49
f 47/75/31 26/44/45 53/81/49
f 48/76/8 52/80/46 26/44/45
f 48/76/8 45/73/28 52/80/46
f 45/73/28 25/43/42 52/80/46
f 46/74/34 51/79/43 25/43/42
f 46/74/34 43/70/25 51/79/43
f 43/70/25 24/42/39 51/79/43
f 44/71/33 50/78/40 24/41/39
f 44/71/33 41/68/10 50/78/40
f 41/68/10 23/40/36 50/78/40
f 42/69/32 49/77/37 23/40/36
f 42/69/32 39/66/20 49/77/37
f 39/66/20 27/45/48 49/77/37
f 47/75/31 48/76/8 26/44/45
f 47/75/31 38/65/30 48/76/8
f 38/65/30 21/38/26 48/76/8
f 45/73/28 46/74/34 25/43/42
f 45/73/28 37/64/27 46/74/34
f 37/64/27 20/37/23 46/74/34
f 43/70/25 44/72/33 24/42/39
f 43/70/25 35/61/24 44/72/33
f 35/61/24 19/35/21 44/72/33
f 41/68/10 42/69/32 23/40/36
f 41/68/10 31/55/22 42/69/32
f 31/55/22 18/34/15 42/69/32
f 39/66/20 40/67/35 27/45/48
f 39/66/20 32/56/16 40/67/35
f 32/56/16 22/39/29 40/67/35
f 33/57/19 38/65/30 22/39/29
f 33/57/19 36/62/18 38/65/30
f 36/62/18 21/38/26 38/65/30
f 36/63/18 37/64/27 21/38/26
f 36/63/18 34/59/17 37/64/27
f 34/59/17 20/37/23 37/64/27
f 34/60/17 35/61/24 20/37/23
f 34/60/17 29/51/14 35/61/24
f 29/51/14 19/35/21 35/61/24
f 32/56/16 33/58/19 22/39/29
f 32/56/16 30/53/13 33/58/19
f 30/53/13 17/33/11 33/58/19
f 29/52/14 31/55/22 19/36/21
f 29/52/14 30/54/13 31/55/22
f 30/54/13 18/34/15 31/55/22
o upper
v 0.500000 2.860000 -0.540997
v 0.500000 4.860000 -0.540997
v 0.500000 2.860000 0.459003
v 0.500000 4.860000 0.459003
v -0.500000 2.860000 -0.540997
v -0.500000 4.860000 -0.540997
v -0.500000 2.860000 0.459003
v -0.500000 4.860000 0.459003
vn 1.0000 -0.0000 -0.0000
vn -0.0000 -0.0000 1.0000
vn -1.0000 -0.0000 -0.0000
vn -0.0000 -0.0000 -1.0000
vn -0.0000 -1.0000 -0.0000
vn -0.0000 1.0000 -0.0000
vt 0.375000 0.000000
vt 0.375000 1.000000
vt 0.125000 0.750000
vt 0.625000 0.000000
vt 0.625000 1.000000
vt 0.875000 0.750000
vt 0.125000 0.500000
vt 0.375000 0.250000
vt 0.625000 0.250000
vt 0.875000 0.500000
vt 0.375000 0.750000
vt 0.625000 0.750000
vt 0.375000 0.500000
vt 0.625000 0.500000
s 1
f 60/95/51 61/99/51 59/92/51
f 62/100/52 65/104/52 61/99/52
f 66/105/53 63/102/53 65/104/53
f 64/103/54 59/93/54 63/102/54
f 65/104/55 59/94/55 61/98/55
f 62/101/56 64/103/56 66/105/56
f 60/95/51 62/100/51 61/99/51
f 62/100/52 66/105/52 65/104/52
f 66/105/53 64/103/53 63/102/53
f 64/103/54 60/96/54 59/93/54
f 65/104/55 63/102/55 59/94/55
f 62/101/56 60/97/56 64/103/56
